<svg xmlns="http://www.w3.org/2000/svg" width="200" height="200" viewBox="0 0 200 200">
  <rect width="200" height="200" rx="20" fill="#f7eeec"/>
  <ellipse cx="72" cy="75" rx="24" ry="15" fill="#8b2020" transform="rotate(-15 72 75)"/>
  <path d="M55,73 Q72,63 89,73" stroke="#6b1515" stroke-width="1.5" fill="none" transform="rotate(-15 72 75)"/>
  <ellipse cx="128" cy="80" rx="24" ry="15" fill="#9b3030" transform="rotate(10 128 80)"/>
  <path d="M111,78 Q128,68 145,78" stroke="#7b2020" stroke-width="1.5" fill="none" transform="rotate(10 128 80)"/>
  <ellipse cx="85" cy="110" rx="24" ry="15" fill="#a03535" transform="rotate(5 85 110)"/>
  <path d="M68,108 Q85,98 102,108" stroke="#802525" stroke-width="1.5" fill="none" transform="rotate(5 85 110)"/>
  <ellipse cx="125" cy="115" rx="24" ry="15" fill="#8b2020" transform="rotate(-10 125 115)"/>
  <path d="M108,113 Q125,103 142,113" stroke="#6b1515" stroke-width="1.5" fill="none" transform="rotate(-10 125 115)"/>
  <ellipse cx="100" cy="142" rx="24" ry="15" fill="#952828"/>
  <path d="M83,140 Q100,130 117,140" stroke="#751818" stroke-width="1.5" fill="none"/>
</svg>
